<svg xmlns="http://www.w3.org/2000/svg" width="649.491" height="389.227" viewBox="0 0 649.491 389.227">
  <g id="Globe" transform="translate(-291.509 -140.079)">
    <path id="Path_26" data-name="Path 26" d="M1001.249,440.883a175.55,175.55,0,1,1-11.115-61.818c.383,1.031.756,2.062,1.119,3.1v.01q2.43,6.863,4.281,13.982a176.743,176.743,0,0,1,5.714,44.723Z" transform="translate(-204.357 -124.779)" fill="#ffbebe"/>
    <path id="Path_27" data-name="Path 27" d="M774.893,304.117a59.3,59.3,0,0,0-52.057-2.13c-7.279,3.168-14.943,8.85-17.371,19.112,9.82-5.8,22.532,3.361,25.059,18.051l-.59.163c-1.335,10.175,1.645,21.252,7.413,27.561a19.384,19.384,0,0,1,9.3-13.8c4.238-2.786,8.927-4.81,12.162-9.6,3.835-5.677,4.809-13.975,6.332-21.544S769.56,306.226,774.893,304.117Z" transform="translate(-174.07 -107.253)" fill="#fff2f2"/>
    <path id="Path_28" data-name="Path 28" d="M747.85,392.188c-2.72,4.085-6.352,6.647-9.612,9.838a22.128,22.128,0,0,0-6.991,13.068c-.413,3.554.226,7.167.137,10.761s-1.286,7.639-3.731,8.532c-3.859,1.394-6.8-5.773-10.771-6.274-3.152-.393-5.989,4.566-5.076,8.866s5.2,6.205,7.668,3.4c2.229,3.741.658,10.526-2.69,11.674-.354,2.356-.707,4.7-1.051,7.06-8.464-5.921-17.016-11.939-24.212-20.609a62.556,62.556,0,0,1-14.256-33.7c-.933-9.966.451-21.365-4.124-29.033-3.662-6.137-9.946-7.492-15.6-7.109-1.031.069-2.072.186-3.1.314a174.792,174.792,0,0,1,12.656-28.965,12.4,12.4,0,0,0,3.171-1.974c5.263-4.467,7.6-13.51,11.87-19.765q.413-.6.854-1.178c4.369-5.7,10.221-8.64,15.877-11.37,12.519-6.078,25.4-12.234,38.616-11.389l-3.761.363q-6.583,18.439-13.176,36.878-1,2.828-2.023,5.665c-2.494,6.991-5.066,14.433-4.683,22.259.226,4.634,1.836,9.583,4.9,11.173,2.857,1.473,5.979-.334,8.738-2.121,1.169-.746,2.327-1.492,3.5-2.249,4.193-2.7,8.837-5.469,13.265-3.662,4.055,1.649,7.05,7.158,7.619,13.1a26.185,26.185,0,0,1-4.005,16.446Z" transform="translate(-201.998 -108.741)" fill="#fff2f2"/>
    <path id="Path_29" data-name="Path 29" d="M747.3,419.979,710.57,397.361l.208-.535c-7.613,2.9-10.774,16.432-9.516,27.5s5.524,20.96,7.68,31.743a84.258,84.258,0,0,1-3.177,44.212A362.073,362.073,0,0,0,748.3,441.67a31.356,31.356,0,0,0,3.847-8.531,13.572,13.572,0,0,0-.9-9.653,10.748,10.748,0,0,0-3.943-3.508Z" transform="translate(-176.517 -52.605)" fill="#fff2f2"/>
    <path id="Path_30" data-name="Path 30" d="M700.139,326.536a13.541,13.541,0,0,0-.621,9.846,10.915,10.915,0,0,0,6.1,5.648l6.766,3.354c2.251,1.116,4.677,2.243,6.971,1.325,2.768-1.107,4.686-5.446,4.19-9.474-.528-4.286-3.23-7.235-5.729-9.745l-10.49-10.541-1.971,2.414a26.323,26.323,0,0,0-5.214,7.174Z" transform="translate(-177.678 -96.323)" fill="#fff2f2"/>
    <path id="Path_31" data-name="Path 31" d="M908.327,379.645l9.131,2.15c-.53,10.28-5.626,19.794-12.46,23.24-2.847,1.434-6.019,1.964-8.375,4.644-2.131,2.435-3.211,6.225-4.2,9.848L887.208,438.5c-1.865,6.814-4.261,14.384-9.111,16.839-4.163,2.111-8.925-.471-12.126-4.8s-5.155-10.152-7.05-15.827c.118,6.186-2.759,12.254-6.834,14.4s-9.053.206-11.782-4.6c-1.964-3.446-2.779-7.992-4.7-11.488s-5.96-5.5-8.061-2.219c-1.385,2.18-1.208,5.518-1.9,8.287a9,9,0,0,1-7.521,7.236,12.542,12.542,0,0,1-9-4.114,40.784,40.784,0,0,1-11.183-22.553,26.9,26.9,0,0,1,.314-12.332c1.208-3.819,4.124-6.765,7.02-6.038,1.9-4.026-1.856-9.367-5.243-8.9s-6.058,4.114-8.847,6.912-6.667,4.831-9.465,2.052a3.84,3.84,0,0,1-3.6,4.068q-.151.009-.3.007a13.922,13.922,0,0,1-5.076-2.69c-6.411-4-14.551-1.345-19.107,6.215,2.847-12.116,7.02-26.019,15.768-28.867,3.574-1.168,7.472-.206,10.85-2.229,5.98-3.584,7.187-17.123,2.023-22.71.658,5.282.53,11.448-2.258,15.062s-8.641,1.257-8.287-4.085a3.578,3.578,0,0,1-6.657,1.414c-1.856-2.828-1.7-7.452-.383-10.83a25.51,25.51,0,0,1,5.724-8.13c4.664-5,9.4-10.054,14.8-13.2s11.655-4.2,17.074-1.08c2.857,1.649,5.371,4.4,8.287,5.852a6.141,6.141,0,0,0,8.456-1.98h0q.049-.079.1-.16c2.17-3.81,1.149-9.465,1.954-14.227,1.443-8.414,9.858-12.352,14.522-6.794-3.486-.893-7.089,3.23-7.521,8.228s2.082,10.044,5.459,11.556c5.675,2.513,11.232-3.81,15.523-9.661q6.716-9.19,13.451-18.37a22.2,22.2,0,0,1,2.406-2.926,7.74,7.74,0,0,1,10.574-.216c4.536,3.7,6.667,11.291,10.388,16.515,5.4,7.59,13.481,9.436,21,10.908q8.409,1.635,16.829,3.289a174.356,174.356,0,0,1,9.769,21.571A59.123,59.123,0,0,0,908.327,379.645Z" transform="translate(-147.705 -100.654)" fill="#fff2f2"/>
    <path id="Path_32" data-name="Path 32" d="M879.648,432.62a176.018,176.018,0,0,1-14.63,24.477c-3.535-1.512-7.335,1.188-10.643,3.721-3.456,2.651-7.609,5.233-11.154,2.818-3.623-2.474-4.791-9.4-3.643-14.885a39.66,39.66,0,0,1,6.794-13.982c2.945-4.4,6.1-8.964,10.191-10.673s9.377.707,10.575,6.539l2.906-.1c-1.63-2.239-.776-6.873,1.414-7.688,2.523-.952,4.713,2.513,6.205,5.577C878.333,429.812,879.01,431.206,879.648,432.62Z" transform="translate(-100.901 -38.449)" fill="#fff2f2"/>
    <path id="Path_33" data-name="Path 33" d="M819.46,419.236c-6.247.393-11.2-7.3-14.483-14.863s-6.288-16.217-11.925-20.068c-3.221-2.2-6.893-2.5-10.386-3.569a12.86,12.86,0,0,1-8.82-7.765l-3.963-1.6A59.516,59.516,0,0,0,754.838,382.1a33.625,33.625,0,0,0-8.965,19.6c-.757,7.932,2.038,16.776,7.261,19.756,4.127,2.354,8.932.87,13.112,3.026,5.223,2.693,8.324,10.515,9.5,18.239s.876,15.75,1.716,23.562,3.154,15.939,7.944,19.942c5.994,5.009,14.789.847,17.478-8.272,1.319-4.473,1.274-9.52,2.26-14.163,1.737-8.177,6.426-14.243,10.144-20.95S821.933,427.02,819.46,419.236Z" transform="translate(-152.021 -66.537)" fill="#fff2f2"/>
    <path id="Path_34" data-name="Path 34" d="M753.827,355.182a16.673,16.673,0,0,1,1.627,1.727,5.674,5.674,0,0,1-.1,5.859,5.451,5.451,0,0,0,3.9-1.984,25.087,25.087,0,0,0,2.993-4.216,4.6,4.6,0,0,0,.882-3.678c-.3-.842-.993-1.2-1.482-1.835a12.471,12.471,0,0,1-1.369-3.976,7.171,7.171,0,0,0-5.2-5.477l.313.06a2.969,2.969,0,0,0-1.391,3.163c.19,1.225.977,2.242.9,3.492-.113,1.8-1.909,2.64-2.019,4.437a3.43,3.43,0,0,0,.942,2.428Z" transform="translate(-148.116 -82.83)" fill="#fff2f2"/>
    <path id="Path_35" data-name="Path 35" d="M746.577,330.846l.028-.005a4.994,4.994,0,0,0,.533-.568Z" transform="translate(-151.569 -89.03)" fill="#fff2f2"/>
    <path id="Path_36" data-name="Path 36" d="M751.277,339.1a5.448,5.448,0,0,0,1.7-5.4c-.454-2.043-2.06-3.417-3.542-3.04a3.609,3.609,0,0,1-3.356.988c-.916-.236-1.922-.843-2.716-.153a4.112,4.112,0,0,0-.925,1.806l-.882,2.708a1.71,1.71,0,0,0-.1,1.026.869.869,0,0,0,.667.53l5.292,1.56A4.559,4.559,0,0,0,751.277,339.1Z" transform="translate(-154.396 -88.852)" fill="#fff2f2"/>
    <path id="Path_37" data-name="Path 37" d="M837.3,414.436l-2.446-4.005a13.381,13.381,0,0,0-3.224-4.048,2.856,2.856,0,0,0-4.024.355h0l-.043.052.1.763a17.221,17.221,0,0,1,4.3,8.384c.186,1.364.121,2.777.284,4.147a4.837,4.837,0,0,0,1.511,3.382c1.284.858,2.792-.407,3.706-1.95a6.716,6.716,0,0,0,1.041-4.275,7.5,7.5,0,0,0-1.2-2.8Z" transform="translate(-107.242 -47.739)" fill="#fff2f2"/>
    <path id="Path_38" data-name="Path 38" d="M844.478,417.9a9.245,9.245,0,0,0-.3-3.728,8.182,8.182,0,0,1,1.245-4.639,15.087,15.087,0,0,0,1.94-4.254,3.558,3.558,0,0,0-.093-2.083c-.27-.606-.924-.883-1.3-.4l.8.517a7.309,7.309,0,0,0-3.257.158,4.031,4.031,0,0,0-2.468,2.783,17.2,17.2,0,0,1-.647,2.887c-.479.984-1.405,1.311-1.988,2.175a5.2,5.2,0,0,0,.082,4.94,5.766,5.766,0,0,0,3.262,2.565C842.739,419.175,844.03,419.193,844.478,417.9Z" transform="translate(-101.624 -49.47)" fill="#fff2f2"/>
    <path id="Path_39" data-name="Path 39" d="M859.635,419.712a11.209,11.209,0,0,0,1.412,2.591c1.091,1.1,2.573.423,3.9.157a6.736,6.736,0,0,1,6.408,2.57,16.311,16.311,0,0,0-9.381-11.7,27.559,27.559,0,0,0-9.648-1.509l-.56.144C853.19,416.117,857.673,416.024,859.635,419.712Z" transform="translate(-94 -44.404)" fill="#fff2f2"/>
    <path id="Path_40" data-name="Path 40" d="M794.492,422.515l.008.018.163-.314Z" transform="translate(-125.344 -38.707)" fill="#fff2f2"/>
    <path id="Path_41" data-name="Path 41" d="M793.479,429.094a30.685,30.685,0,0,0-1.939,4.259,37.064,37.064,0,0,0-1.405,7.288c-.175,1.4-.23,3.2.65,3.883a1.248,1.248,0,0,0,1.633-.222,6.455,6.455,0,0,0,1.184-1.76,40.536,40.536,0,0,0,4-9.484,16.505,16.505,0,0,0-.655-10.636Z" transform="translate(-127.787 -38.596)" fill="#fff2f2"/>
    <path id="Path_42" data-name="Path 42" d="M771.384,316.594a3.934,3.934,0,0,0,4.241.828,14,14,0,0,0,3.99-2.635,9.385,9.385,0,0,0,2.419-2.639,5.351,5.351,0,0,0,.495-4.076,4.14,4.14,0,0,0-3.156-2.5l-5.874-1.742,1.417-1.277c-1.457-.782-3.07.669-3.981,2.467a13.272,13.272,0,0,0-1.208,3.72A9.547,9.547,0,0,0,771.384,316.594Z" transform="translate(-139.032 -104.319)" fill="#fff2f2"/>
    <path id="Path_43" data-name="Path 43" d="M793.515,306.944a3.235,3.235,0,0,0,4.409.359,4.928,4.928,0,0,0,1.95-3.512c.138-1.54-.623-3.252-1.711-3.385l.249-1.442c-2.1-.378-4.674-.454-5.8,2.09a5.974,5.974,0,0,0,.9,5.891Z" transform="translate(-126.593 -106.274)" fill="#fff2f2"/>
    <ellipse id="Ellipse_19" data-name="Ellipse 19" cx="13.071" cy="17.527" rx="13.071" ry="17.527" transform="translate(511.406 269.354)" fill="#fedad6"/>
    <ellipse id="Ellipse_20" data-name="Ellipse 20" cx="11.692" cy="8.134" rx="11.692" ry="8.134" transform="translate(747.852 508.728) rotate(-14.913)" fill="rgba(230,230,230,0.15)"/>
    <ellipse id="Ellipse_21" data-name="Ellipse 21" cx="11.692" cy="8.134" rx="11.692" ry="8.134" transform="translate(671.42 510.144) rotate(-14.913)" fill="rgba(230,230,230,0.15)"/>
    <ellipse id="Ellipse_22" data-name="Ellipse 22" cx="11.692" cy="8.134" rx="11.692" ry="8.134" transform="translate(761.43 445.137) rotate(-14.913)" fill="rgba(230,230,230,0.15)"/>
    <ellipse id="Ellipse_23" data-name="Ellipse 23" cx="5.141" cy="7.39" rx="5.141" ry="7.39" transform="translate(792.531 416.788) rotate(-7.068)" fill="rgba(230,230,230,0.15)"/>
    <ellipse id="Ellipse_24" data-name="Ellipse 24" cx="5.141" cy="7.39" rx="5.141" ry="7.39" transform="translate(798.238 368.813) rotate(-7.068)" fill="rgba(230,230,230,0.15)"/>
    <ellipse id="Ellipse_25" data-name="Ellipse 25" cx="5.141" cy="7.39" rx="5.141" ry="7.39" transform="translate(721.194 461.038) rotate(-7.068)" fill="rgba(230,230,230,0.15)"/>
    <ellipse id="Ellipse_26" data-name="Ellipse 26" cx="5.141" cy="7.39" rx="5.141" ry="7.39" transform="translate(759.835 475.025) rotate(-7.068)" fill="rgba(230,230,230,0.15)"/>
    <ellipse id="Ellipse_27" data-name="Ellipse 27" cx="5.141" cy="7.39" rx="5.141" ry="7.39" transform="translate(712.917 514.639) rotate(-7.068)" fill="rgba(230,230,230,0.15)"/>
    <ellipse id="Ellipse_28" data-name="Ellipse 28" cx="11.692" cy="8.134" rx="11.692" ry="8.134" transform="translate(367.941 444.544) rotate(-14.913)" fill="rgba(230,230,230,0.15)"/>
    <ellipse id="Ellipse_29" data-name="Ellipse 29" cx="11.692" cy="8.134" rx="11.692" ry="8.134" transform="translate(291.509 445.96) rotate(-14.913)" fill="rgba(230,230,230,0.15)"/>
    <ellipse id="Ellipse_30" data-name="Ellipse 30" cx="11.692" cy="8.134" rx="11.692" ry="8.134" transform="translate(381.519 380.954) rotate(-14.913)" fill="rgba(230,230,230,0.15)"/>
    <ellipse id="Ellipse_31" data-name="Ellipse 31" cx="5.141" cy="7.39" rx="5.141" ry="7.39" transform="translate(412.621 352.602) rotate(-7.068)" fill="rgba(230,230,230,0.15)"/>
    <ellipse id="Ellipse_32" data-name="Ellipse 32" cx="5.141" cy="7.39" rx="5.141" ry="7.39" transform="translate(418.328 304.627) rotate(-7.068)" fill="rgba(230,230,230,0.15)"/>
    <ellipse id="Ellipse_33" data-name="Ellipse 33" cx="5.141" cy="7.39" rx="5.141" ry="7.39" transform="translate(341.284 396.852) rotate(-7.068)" fill="rgba(230,230,230,0.15)"/>
    <ellipse id="Ellipse_34" data-name="Ellipse 34" cx="5.141" cy="7.39" rx="5.141" ry="7.39" transform="translate(379.925 410.839) rotate(-7.068)" fill="rgba(230,230,230,0.15)"/>
    <ellipse id="Ellipse_35" data-name="Ellipse 35" cx="5.141" cy="7.39" rx="5.141" ry="7.39" transform="translate(333.007 450.454) rotate(-7.068)" fill="rgba(230,230,230,0.15)"/>
    <ellipse id="Ellipse_36" data-name="Ellipse 36" cx="11.693" cy="8.134" rx="11.693" ry="8.134" transform="matrix(-0.966, -0.257, 0.257, -0.966, 860.381, 360.806)" fill="rgba(230,230,230,0.15)"/>
    <ellipse id="Ellipse_37" data-name="Ellipse 37" cx="11.693" cy="8.134" rx="11.693" ry="8.134" transform="matrix(-0.966, -0.257, 0.257, -0.966, 936.813, 362.222)" fill="rgba(230,230,230,0.15)"/>
    <ellipse id="Ellipse_38" data-name="Ellipse 38" cx="11.693" cy="8.134" rx="11.693" ry="8.134" transform="matrix(-0.966, -0.257, 0.257, -0.966, 846.804, 297.216)" fill="rgba(230,230,230,0.15)"/>
    <ellipse id="Ellipse_39" data-name="Ellipse 39" cx="5.141" cy="7.39" rx="5.141" ry="7.39" transform="translate(818.069 267.814) rotate(-172.932)" fill="rgba(230,230,230,0.15)"/>
    <ellipse id="Ellipse_40" data-name="Ellipse 40" cx="5.141" cy="7.39" rx="5.141" ry="7.39" transform="translate(812.362 219.839) rotate(-172.932)" fill="rgba(230,230,230,0.15)"/>
    <ellipse id="Ellipse_41" data-name="Ellipse 41" cx="5.141" cy="7.39" rx="5.141" ry="7.39" transform="translate(889.406 312.065) rotate(-172.932)" fill="rgba(230,230,230,0.15)"/>
    <ellipse id="Ellipse_42" data-name="Ellipse 42" cx="5.141" cy="7.39" rx="5.141" ry="7.39" transform="translate(850.765 326.051) rotate(-172.932)" fill="rgba(230,230,230,0.15)"/>
    <ellipse id="Ellipse_43" data-name="Ellipse 43" cx="5.141" cy="7.39" rx="5.141" ry="7.39" transform="translate(897.683 365.666) rotate(-172.932)" fill="rgba(230,230,230,0.15)"/>
    <g id="Free_Shipping_Banner" data-name="Free Shipping Banner" transform="translate(-798.587 -1993.892)" style="mix-blend-mode: normal;isolation: isolate">
      <g id="International_Shipment" data-name="International Shipment" transform="translate(1654.483 2207.419) rotate(-174)" style="mix-blend-mode: normal;isolation: isolate">
        <g id="airplane-line" transform="translate(0 0)" style="mix-blend-mode: normal;isolation: isolate">
          <path id="Path_11" data-name="Path 11" d="M.07,56.4A5.944,5.944,0,0,0,4.718,61.3l14.358,3.155A11.007,11.007,0,0,0,28,62.519L70.441,31.6l11.887.489A4.549,4.549,0,0,0,85.336,24l-12.23-9.613c-1.468-1.786-2.446-1.443-26.734,11.79L44.1,3.131A3.327,3.327,0,0,0,42.019.245,3.5,3.5,0,0,0,40.7,0a3.767,3.767,0,0,0-2.446,1L32.406,6.335a3.718,3.718,0,0,0-1.125,2.03L25.924,37.472c-8.732,4.892-17,9.49-22.894,12.841A5.944,5.944,0,0,0,.07,56.4ZM5.451,54.57C11.566,51.1,20.127,46.229,29.324,41.19l1-.563,5.7-30.99,3.6-3.278L42.312,34l3.253-1.663c17.538-9.784,23.383-12.621,25.389-13.5l10.518,8.341-12.425-.538L25.019,58.581a6.139,6.139,0,0,1-4.892,1.1L5.818,56.6a1.052,1.052,0,0,1-.856-.905,1.027,1.027,0,0,1,.489-1.125Z" fill="#ffbebe"/>
          <path id="Path_12" data-name="Path 12" d="M26.343,2.446,17.635,0,13.624,2.911l9.784,2.837-4.4,2.691L5.626,8.83,0,12.915l19.005-.587a3.057,3.057,0,0,0,1.712-.416L27.15,8.17a3.131,3.131,0,0,0-.807-5.724Z" transform="translate(44.098 43.245)" fill="#ffbebe"/>
          <rect id="Rectangle_31" data-name="Rectangle 31" width="6.066" height="4.853" rx="2.426" transform="translate(16.532 55.193) rotate(-30)" fill="#ffbebe"/>
          <rect id="Rectangle_32" data-name="Rectangle 32" width="2.426" height="2.426" rx="1.213" transform="translate(33.202 45.512) rotate(-30)" fill="#ffbebe"/>
          <rect id="Rectangle_33" data-name="Rectangle 33" width="2.426" height="2.426" rx="1.213" transform="matrix(0.407, -0.914, 0.914, 0.407, 39.909, 42.127)" fill="#ffbebe"/>
          <rect id="Rectangle_33-2" data-name="Rectangle 33" width="2.426" height="2.426" rx="1.213" transform="matrix(0.407, -0.914, 0.914, 0.407, 47.08, 37.713)" fill="#ffbebe"/>
        </g>
      </g>
    </g>
  </g>
</svg>
